HIERARCHY
ROOT Hips
{
  OFFSET 53.2057 95.6472 9.94019
  CHANNELS 6 Xposition Yposition Zposition Zrotation Xrotation Yrotation
  JOINT spine
  {
    OFFSET 0 7.96568 0.458067
    CHANNELS 3 Zrotation Xrotation Yrotation
    JOINT spine1
    {
      OFFSET 0 10.2431 0
      CHANNELS 3 Zrotation Xrotation Yrotation
      JOINT spine2
      {
        OFFSET 0 9.81475 0
        CHANNELS 3 Zrotation Xrotation Yrotation
        JOINT Neck
        {
          OFFSET 0 25.1986 1.20138
          CHANNELS 3 Zrotation Xrotation Yrotation
          JOINT Head
          {
            OFFSET 0 7.61315 0
            CHANNELS 3 Zrotation Xrotation Yrotation
            End Site
            {
              OFFSET 0 18.4281 -6.07733
            }
          }
        }
        JOINT RightShoulder
        {
          OFFSET -4.1327 10.5992 -0.575451
          CHANNELS 3 Zrotation Xrotation Yrotation
          JOINT RightArm
          {
            OFFSET 0 13.9018 0
            CHANNELS 3 Zrotation Xrotation Yrotation
            JOINT RightArmRoll
            {
              OFFSET 0 7.01789 0
              CHANNELS 3 Zrotation Xrotation Yrotation
              JOINT RightForeArm
              {
                OFFSET 0 20.4406 0
                CHANNELS 3 Zrotation Xrotation Yrotation
                JOINT RightForeArmRoll
                {
                  OFFSET 0 7.87516 0
                  CHANNELS 3 Zrotation Xrotation Yrotation
                  JOINT RightHand
                  {
                    OFFSET 0 15.8037 0
                    CHANNELS 3 Zrotation Xrotation Yrotation
                    End Site
                    {
                      OFFSET 0 0 0
                    }
                  }
                }
              }
            }
          }
        }
        JOINT LeftShoulder
        {
          OFFSET 4.1327 10.5992 -0.575451
          CHANNELS 3 Zrotation Xrotation Yrotation
          JOINT LeftArm
          {
            OFFSET 0 13.9018 0
            CHANNELS 3 Zrotation Xrotation Yrotation
            JOINT LeftArmRoll
            {
              OFFSET 0 7.01789 0
              CHANNELS 3 Zrotation Xrotation Yrotation
              JOINT LeftForeArm
              {
                OFFSET 0 20.4406 0
                CHANNELS 3 Zrotation Xrotation Yrotation
                JOINT LeftForeArmRoll
                {
                  OFFSET 0 7.87516 0
                  CHANNELS 3 Zrotation Xrotation Yrotation
                  JOINT LeftHand
                  {
                    OFFSET 0 15.8037 0
                    CHANNELS 3 Zrotation Xrotation Yrotation
                    End Site
                    {
                      OFFSET 0 0 0
                    }
                  }
                }
              }
            }
          }
        }
      }
    }
  }
  JOINT RightUpLeg
  {
    OFFSET -7.06048 -1.2947 -1.0861
    CHANNELS 3 Zrotation Xrotation Yrotation
    JOINT RightUpLegRoll
    {
      OFFSET 0 18.5308 0
      CHANNELS 3 Zrotation Xrotation Yrotation
      JOINT RightLeg
      {
        OFFSET 0 -22.9476 0
        CHANNELS 3 Zrotation Xrotation Yrotation
        JOINT RightLegRoll
        {
          OFFSET 0 23.0226 0
          CHANNELS 3 Zrotation Xrotation Yrotation
          JOINT RightFoot
          {
            OFFSET 0 19.1625 0
            CHANNELS 3 Zrotation Xrotation Yrotation
            JOINT RightToeBase
            {
              OFFSET 0 16.0188 0
              CHANNELS 3 Zrotation Xrotation Yrotation
              End Site
              {
                OFFSET 0.00678979 7.75782 -0.894207
              }
            }
          }
        }
      }
    }
  }
  JOINT LeftUpLeg
  {
    OFFSET 7.06048 -1.2947 -1.0861
    CHANNELS 3 Zrotation Xrotation Yrotation
    JOINT LeftUpLegRoll
    {
      OFFSET 0 18.5309 0
      CHANNELS 3 Zrotation Xrotation Yrotation
      JOINT LeftLeg
      {
        OFFSET 0 22.9475 0
        CHANNELS 3 Zrotation Xrotation Yrotation
        JOINT LeftLegRoll
        {
          OFFSET 0 23.2355 0
          CHANNELS 3 Zrotation Xrotation Yrotation
          JOINT LeftFoot
          {
            OFFSET 0 18.9496 0
            CHANNELS 3 Zrotation Xrotation Yrotation
            JOINT LeftToeBase
            {
              OFFSET 0 16.0188 0
              CHANNELS 3 Zrotation Xrotation Yrotation
              End Site
              {
                OFFSET -0.0304289 7.75782 -0.894206
              }
            }
          }
        }
      }
    }
  }
}
MOTION
Frames: 13
Frame Time: 0.00208333
53.3288 95.6751 8.36871 1.79387 -0.717751 2.75948 -0.536338 -2.45781 -0.0528914 -1.06838 -0.912739 -0.0610549 -1.06773 0.732168 -0.0431834 3.71529 38.7686 -3.23677 1.25187 -9.81687 -1.19601 12.0929 -13.7619 -11.477 -9.91747 41.9796 104.421 -6.36111e-015 9.74045e-015 -1.98785e-015 -18.3798 34.689 13.9964 -1.86295e-006 -5.68454e-007 -3.0097 8.03019 -4.95139 0.697637 -7.8137 -13.9948 12.2736 15.7639 45.8196 -112.828 -6.36111e-015 -3.71727e-014 -1.0138e-014 23.5962 36.8805 -18.503 1.79459e-005 4.33241e-006 3.0012 -8.03067 -4.95137 -0.697619 172.431 0.81517 -0.378264 -180 7.01539e-015 178.887 177.98 9.22098 179.546 -2.91285e-007 -5.91034e-006 0.211861 -20.9144 70.4695 21.8528 8.14645 25.3799 -3.29188 -175.78 0.923692 1.80058 4.5067e-006 -1.99009e-005 -1.09641 -1.63595 -4.5979 0.0674341 -4.18653e-007 -4.00229e-006 -0.0371956 18.7109 67.8184 -19.3911 -8.13649 25.2327 3.48774 
53.3297 95.6806 8.36726 1.79487 -0.720536 2.75647 -0.535544 -2.45894 -0.0533438 -1.06715 -0.914986 -0.0617556 -1.06649 0.729922 -0.0439057 3.70419 38.7816 -3.22956 1.24419 -9.81945 -1.1951 12.055 -13.7612 -11.4796 -9.85298 41.9734 104.328 -2.8625e-014 -1.17283e-014 3.97569e-016 -18.3537 34.6563 13.9703 -1.86295e-006 -5.68454e-007 -3.0097 8.03019 -4.95139 0.697637 -7.81333 -13.9985 12.2794 15.7319 45.8354 -112.771 -1.27222e-014 1.21259e-014 -2.98177e-015 23.5674 36.8319 -18.4617 1.79459e-005 4.33241e-006 3.00121 -8.03067 -4.95137 -0.697619 172.431 0.804105 -0.378731 -180 7.01539e-015 178.888 177.98 9.21503 179.546 -2.91285e-007 -5.91034e-006 0.211737 -20.9175 70.4726 21.8561 8.14643 25.3796 -3.29233 -175.781 0.91562 1.80037 4.5067e-006 -1.99009e-005 -1.09654 -1.63626 -4.59778 0.0673433 -4.18653e-007 -4.00229e-006 -0.0372285 18.7109 67.8186 -19.3914 -8.13649 25.2327 3.48774 
53.3259 95.678 8.37454 1.79527 -0.722152 2.75368 -0.534545 -2.4602 -0.053723 -1.06563 -0.917501 -0.0623125 -1.06496 0.727407 -0.0444899 3.69125 38.7879 -3.2213 1.23842 -9.81484 -1.19399 12.0196 -13.7621 -11.4844 -9.78957 41.9686 104.234 -9.54166e-015 5.76476e-015 -1.19271e-015 -18.3275 34.6148 13.941 -1.86295e-006 -5.68454e-007 -3.0097 8.03019 -4.95139 0.697637 -7.82488 -14.0014 12.2826 15.709 45.8488 -112.723 3.18055e-015 -2.48481e-015 1.59028e-015 23.5408 36.7801 -18.4203 1.79459e-005 4.33241e-006 3.00123 -8.03067 -4.95137 -0.697619 172.432 0.79454 -0.379609 -180 7.01539e-015 178.888 177.981 9.20945 179.546 -2.91286e-007 -5.91034e-006 0.211646 -20.9205 70.4757 21.8594 8.14641 25.3794 -3.29271 -175.781 0.909252 1.79967 4.5067e-006 -1.99009e-005 -1.09669 -1.63668 -4.59806 0.0672317 -4.18653e-007 -4.00229e-006 -0.0372612 18.7108 67.8187 -19.3916 -8.13649 25.2327 3.48774 
53.3229 95.6778 8.38387 1.79516 -0.722796 2.75102 -0.533379 -2.46157 -0.0540346 -1.06386 -0.920239 -0.0627355 -1.06319 0.72467 -0.0449444 3.67669 38.7883 -3.21212 1.23443 -9.80398 -1.1927 11.9867 -13.7645 -11.4911 -9.72665 41.965 104.141 3.18055e-015 2.3059e-014 -4.37326e-015 -18.3012 34.5652 13.9089 -1.86295e-006 -5.68454e-007 -3.0097 8.03019 -4.95139 0.697637 -7.84721 -14.0036 12.2834 15.6932 45.8602 -112.68 2.22639e-014 -2.98177e-015 -1.98785e-015 23.5157 36.7254 -18.3784 1.79459e-005 4.33241e-006 3.00124 -8.03067 -4.95137 -0.697619 172.433 0.786264 -0.380819 -180 7.01539e-015 178.888 177.981 9.20417 179.546 -2.91285e-007 -5.91034e-006 0.211585 -20.9236 70.4789 21.8628 8.1464 25.3791 -3.29303 -175.781 0.90432 1.79854 4.5067e-006 -1.99009e-005 -1.09686 -1.63724 -4.59868 0.0671005 -4.18653e-007 -4.00229e-006 -0.0372936 18.7108 67.8187 -19.3918 -8.13649 25.2327 3.48774 
53.3305 95.6945 8.38827 1.79464 -0.722667 2.74844 -0.532083 -2.46302 -0.0542841 -1.06191 -0.923152 -0.0630341 -1.06123 0.721757 -0.045278 3.66072 38.7836 -3.20216 1.23212 -9.78778 -1.19123 11.9568 -13.768 -11.499 -9.66367 41.9627 104.046 -1.27222e-014 -1.33186e-014 3.18055e-015 -18.2747 34.5084 13.874 -1.86295e-006 -5.68454e-007 -3.0097 8.03019 -4.95139 0.697637 -7.87917 -14.0049 12.2818 15.6828 45.8699 -112.641 1.59028e-014 1.30204e-014 2.38542e-015 23.4916 36.668 -18.3358 1.79459e-005 4.33241e-006 3.00125 -8.03067 -4.95137 -0.697619 172.435 0.779066 -0.382278 -180 7.01539e-015 178.888 177.981 9.1991 179.546 -2.91285e-007 -5.91034e-006 0.211549 -20.9267 70.482 21.8661 8.14639 25.379 -3.2933 -175.78 0.900553 1.79703 4.5067e-006 -1.99009e-005 -1.09704 -1.63791 -4.5996 0.0669509 -4.18653e-007 -4.00229e-006 -0.0373258 18.7107 67.8187 -19.392 -8.13649 25.2327 3.48774 
53.3267 95.6943 8.40784 1.79379 -0.721963 2.74584 -0.530694 -2.46455 -0.0544771 -1.05984 -0.926194 -0.0632182 -1.05915 0.718715 -0.0454991 3.64357 38.7748 -3.19155 1.23136 -9.76717 -1.18959 11.9299 -13.7723 -11.5079 -9.60003 41.9615 103.95 -9.54166e-015 -1.99779e-014 1.78906e-015 -18.2481 34.4454 13.8367 -1.86295e-006 -5.68454e-007 -3.00969 8.03019 -4.95139 0.697637 -7.91962 -14.0054 12.278 15.676 45.8783 -112.605 1.27222e-014 -1.66979e-014 -8.54774e-015 23.4681 36.6081 -18.2923 1.79459e-005 4.33241e-006 3.00126 -8.03067 -4.95137 -0.697619 172.437 0.772733 -0.383907 -180 7.01539e-015 178.888 177.981 9.19423 179.546 -2.91285e-007 -5.91034e-006 0.211534 -20.9296 70.485 21.8693 8.14638 25.3788 -3.29352 -175.778 0.897681 1.79521 4.5067e-006 -1.99009e-005 -1.09723 -1.63871 -4.60077 0.0667842 -4.18653e-007 -4.00229e-006 -0.0373578 18.7105 67.8187 -19.3921 -8.13649 25.2327 3.48774 
53.322 95.6786 8.41115 1.79273 -0.72088 2.74317 -0.52925 -2.46611 -0.0546192 -1.05768 -0.92932 -0.0632974 -1.05699 0.71559 -0.0456166 3.62545 38.7626 -3.18041 1.23205 -9.74306 -1.18778 11.9062 -13.7771 -11.5172 -9.53522 41.9616 103.853 8.40022e-031 8.34896e-015 -5.76476e-015 -18.2212 34.3769 13.7971 -1.86295e-006 -5.68454e-007 -3.00969 8.03019 -4.95139 0.697637 -7.96742 -14.0051 12.2721 15.671 45.8856 -112.569 -1.27222e-014 -7.05686e-015 -1.19271e-015 23.4446 36.5457 -18.2476 1.79459e-005 4.33241e-006 3.00127 -8.03067 -4.95137 -0.697619 172.44 0.767055 -0.385624 -180 7.01539e-015 178.888 177.981 9.18949 179.546 -2.91285e-007 -5.91034e-006 0.211536 -20.9324 70.4879 21.8723 8.14636 25.3786 -3.2937 -175.776 0.895434 1.79311 4.5067e-006 -1.99009e-005 -1.09744 -1.63963 -4.60216 0.0666015 -4.18653e-007 -4.00229e-006 -0.0373895 18.7103 67.8186 -19.3922 -8.13649 25.2327 3.48774 
53.3225 95.6854 8.42422 1.79153 -0.719616 2.74035 -0.527788 -2.46769 -0.0547159 -1.05552 -0.932483 -0.0632816 -1.05482 0.712428 -0.0456389 3.60659 38.7481 -3.16888 1.23405 -9.71638 -1.18581 11.886 -13.7821 -11.5264 -9.46864 41.9628 103.753 -3.18055e-015 -1.05356e-014 2.38542e-015 -18.194 34.3038 13.7557 -1.86295e-006 -5.68454e-007 -3.00969 8.03019 -4.95139 0.697637 -8.02143 -14.0039 12.2643 15.666 45.8922 -112.532 9.54166e-015 -1.48095e-014 -1.39149e-015 23.4206 36.4812 -18.2015 1.79459e-005 4.33241e-006 3.00128 -8.03067 -4.95137 -0.697619 172.443 0.761821 -0.38735 -180 7.01539e-015 178.888 177.981 9.18482 179.546 -2.91285e-007 -5.91034e-006 0.211551 -20.935 70.4905 21.875 8.14636 25.3785 -3.29385 -175.774 0.893543 1.79081 4.5067e-006 -1.99009e-005 -1.09766 -1.64067 -4.60372 0.066404 -4.18653e-007 -4.00229e-006 -0.037421 18.7101 67.8185 -19.3923 -8.13649 25.2327 3.48774 
53.3216 95.6817 8.43168 1.79031 -0.718369 2.73731 -0.526346 -2.46927 -0.0547728 -1.05339 -0.935637 -0.0631803 -1.05269 0.709275 -0.0455746 3.5872 38.732 -3.15709 1.23727 -9.68804 -1.18368 11.8694 -13.787 -11.5352 -9.39974 41.965 103.652 6.36111e-015 -1.04362e-014 -2.98177e-015 -18.1666 34.2271 13.7125 -1.86295e-006 -5.68454e-007 -3.00969 8.03019 -4.95139 0.697637 -8.08049 -14.0019 12.2545 15.6591 45.8985 -112.491 1.27222e-014 -1.78906e-015 -1.59028e-015 23.3955 36.4146 -18.1536 1.79459e-005 4.33241e-006 3.00129 -8.03067 -4.95137 -0.697619 172.445 0.756818 -0.389003 -180 7.01539e-015 178.888 177.98 9.18017 179.546 -2.91285e-007 -5.91034e-006 0.211575 -20.9373 70.4929 21.8775 8.14635 25.3784 -3.29398 -175.772 0.891738 1.78836 4.5067e-006 -1.99009e-005 -1.09789 -1.64184 -4.6054 0.066193 -4.18653e-007 -4.00229e-006 -0.0374523 18.7099 67.8184 -19.3923 -8.13649 25.2327 3.48774 
53.3214 95.6777 8.42525 1.78914 -0.717337 2.73397 -0.524961 -2.47082 -0.0547954 -1.05135 -0.938735 -0.0630033 -1.05066 0.706178 -0.0454325 3.56749 38.7151 -3.14517 1.24159 -9.65897 -1.1814 11.8568 -13.7914 -11.5429 -9.32793 41.9683 103.547 -6.36111e-015 -1.88845e-015 3.18055e-015 -18.1388 34.1477 13.6678 -1.86295e-006 -5.68454e-007 -3.00969 8.03019 -4.95139 0.697637 -8.14346 -13.999 12.243 15.6485 45.9047 -112.445 3.18055e-015 1.98785e-015 3.37934e-015 23.369 36.3462 -18.1039 1.79459e-005 4.33241e-006 3.0013 -8.03067 -4.95137 -0.697619 172.448 0.751836 -0.390504 -180 7.01539e-015 178.888 177.98 9.17545 179.545 -2.91285e-007 -5.91034e-006 0.211603 -20.9394 70.495 21.8797 8.14634 25.3783 -3.29408 -175.77 0.889749 1.78582 4.5067e-006 -1.99009e-005 -1.09814 -1.64313 -4.60716 0.0659697 -4.18653e-007 -4.00229e-006 -0.0374834 18.7097 67.8182 -19.3923 -8.13649 25.2327 3.48774 
53.3253 95.6781 8.43731 1.78812 -0.716717 2.73026 -0.523671 -2.47231 -0.0547892 -1.04947 -0.941731 -0.0627604 -1.04878 0.703182 -0.0452212 3.54769 38.6985 -3.13324 1.24688 -9.63009 -1.17898 11.8482 -13.7952 -11.5493 -9.25268 41.9725 103.44 -1.27222e-014 -1.21259e-014 1.59028e-015 -18.1107 34.0662 13.6218 -1.86295e-006 -5.68454e-007 -3.00968 8.03019 -4.95139 0.697637 -8.20921 -13.9952 12.2298 15.6325 45.9111 -112.392 3.18055e-015 -1.81888e-014 -7.15625e-015 23.3404 36.2761 -18.0519 1.79459e-005 4.33241e-006 3.00131 -8.03067 -4.95137 -0.697619 172.451 0.746662 -0.39177 -180 7.01539e-015 178.888 177.979 9.17068 179.545 -2.91285e-007 -5.91034e-006 0.211633 -20.941 70.4968 21.8814 8.14633 25.3782 -3.29417 -175.768 0.887306 1.78324 4.5067e-006 -1.99009e-005 -1.09839 -1.64455 -4.60896 0.0657352 -4.18653e-007 -4.00229e-006 -0.0375142 18.7094 67.818 -19.3923 -8.13649 25.2327 3.48774 
53.3172 95.6774 8.44771 1.78736 -0.716707 2.72611 -0.522513 -2.47374 -0.0547598 -1.04779 -0.944579 -0.0624613 -1.0471 0.700335 -0.0449492 3.52801 38.6829 -3.12144 1.25304 -9.60232 -1.17642 11.8439 -13.7979 -11.5537 -9.17342 41.9777 103.329 -1.27222e-014 7.7526e-015 -4.57205e-015 -18.0821 33.9838 13.5749 -1.86295e-006 -5.68454e-007 -3.00968 8.03019 -4.95139 0.697637 -8.27658 -13.9906 12.2151 15.6091 45.9181 -112.33 1.59028e-014 2.68359e-015 2.78299e-015 23.3092 36.2045 -17.9976 1.79459e-005 4.33241e-006 3.00132 -8.03067 -4.95137 -0.697619 172.453 0.741087 -0.392722 -180 7.01539e-015 178.888 177.978 9.16575 179.545 -2.91285e-007 -5.91034e-006 0.211659 -20.9422 70.4981 21.8827 8.14633 25.3781 -3.29426 -175.766 0.884139 1.78067 4.5067e-006 -1.99009e-005 -1.09866 -1.64608 -4.61075 0.0654908 -4.18653e-007 -4.00229e-006 -0.0375448 18.7092 67.8179 -19.3922 -8.13649 25.2327 3.48774 
53.3183 95.6759 8.45352 1.78694 -0.717504 2.72145 -0.521525 -2.47506 -0.0547128 -1.04637 -0.947232 -0.0621156 -1.04568 0.697682 -0.0446251 3.50865 38.6692 -3.10989 1.25994 -9.57658 -1.17373 11.8442 -13.7993 -11.5558 -9.08957 41.9837 103.214 3.18055e-015 -2.51463e-014 5.96354e-015 -18.0531 33.9012 13.5271 -1.86295e-006 -5.68454e-007 -3.00968 8.03019 -4.95139 0.697637 -8.34443 -13.9851 12.1989 15.5766 45.926 -112.257 1.90833e-014 -2.34566e-014 -3.77691e-015 23.275 36.1316 -17.9405 1.79459e-005 4.33241e-006 3.00134 -8.03067 -4.95137 -0.697619 172.455 0.734897 -0.393279 -180 7.01539e-015 178.888 177.977 9.16059 179.546 -2.91285e-007 -5.91034e-006 0.211678 -20.9429 70.499 21.8835 8.14632 25.378 -3.29435 -175.764 0.879979 1.77819 4.5067e-006 -1.99009e-005 -1.09893 -1.64774 -4.61249 0.0652376 -4.18653e-007 -4.00229e-006 -0.0375752 18.7089 67.8177 -19.3921 -8.13649 25.2327 3.48774 
